<svg xmlns="http://www.w3.org/2000/svg" width="40" height="40" viewBox="0 0 40 40">
  <g id="组_14261" data-name="组 14261" transform="translate(7244 43)">
    <rect id="矩形_4775" data-name="矩形 4775" width="40" height="40" transform="translate(-7244 -43)" fill="none"/>
    <g id="组_14260" data-name="组 14260" transform="translate(-40 -12)">
      <circle id="_2" data-name="2" cx="20" cy="20" r="20" transform="translate(-7204 -31)" fill="#148af5"/>
      <path id="理财" d="M69.709,98.806a2.39,2.39,0,0,1-.162.884,2.191,2.191,0,0,1-.461.722,2.13,2.13,0,0,1-1.568.66H49.444a2.331,2.331,0,0,1-.9-.174,2.368,2.368,0,0,1-.747-.485,2.33,2.33,0,0,1-.51-.722,2.111,2.111,0,0,1-.187-.884V86.383a2.253,2.253,0,0,1,2.265-2.265H67.443a2.253,2.253,0,0,1,2.265,2.265v3.386H64.058a2.207,2.207,0,0,0-1.606.647,2.145,2.145,0,0,0-.66,1.593,2.771,2.771,0,0,0,.274,1.145,2.109,2.109,0,0,0,.66.772,2.178,2.178,0,0,0,1.332.349h5.651ZM66.323,82.972h-11.3q1.344-.7,2.539-1.344,1.046-.548,2.066-1.1t1.593-.846a2.987,2.987,0,0,1,1.556-.436,3.481,3.481,0,0,1,1.158.237,3.119,3.119,0,0,1,.946.722Zm-3.386,9.037a1.12,1.12,0,1,1,2.241,0,1.125,1.125,0,0,1-.324.809,1.112,1.112,0,0,1-1.593,0A1.125,1.125,0,0,1,62.937,92.009Z" transform="translate(-7242.103 -102.248)" fill="#e2e8f2"/>
    </g>
  </g>
</svg>
